<?xml version="1.0" encoding="iso-8859-1"?>
<!-- Generator: Adobe Illustrator 16.0.0, SVG Export Plug-In . SVG Version: 6.00 Build 0)  -->
<!DOCTYPE svg PUBLIC "-//W3C//DTD SVG 1.1//EN" "http://www.w3.org/Graphics/SVG/1.1/DTD/svg11.dtd">
<svg version="1.1" id="Capa_1" xmlns="http://www.w3.org/2000/svg" xmlns:xlink="http://www.w3.org/1999/xlink" x="0px" y="0px"
	 width="788.395px" height="788.395px" viewBox="0 0 788.395 788.395" style="enable-background:new 0 0 788.395 788.395;"
	 xml:space="preserve">
<g>
	<g>
		<path d="M722.115,390.807H621.583H413.019c-8.696,0-15.745,7.048-15.745,15.745v9.688c0,8.696,7.05,15.747,15.745,15.747h208.563
			h100.531h52.083v-41.18H722.115L722.115,390.807z"/>
		<g>
			<path d="M588.203,269.567l-199.767-0.109l-4.729,0.016v-23.212L294.82,142.934c-43.701,0-79.127,35.427-79.127,79.125v249.817
				c0,1.18,0.038,2.35,0.09,3.518v22.812c-0.057,1.021-0.09,2.047-0.09,3.082c0,1.034,0.033,2.062,0.09,3.084v0.021h0.001
				c1.61,29.346,25.91,52.646,55.656,52.646h46.518h51.609h22.056h64.249v186.69c0,24.669,20.062,44.666,44.813,44.666
				c24.748,0,44.812-19.997,44.812-44.666V490.208c0-24.666-20.062-44.666-44.812-44.666c-1.738,0-8.976,0-10.935,0h-20.56h-77.569
				h-7.917v-95.359c0,0-2.418-0.018-2.517-0.018c-11.369,0-22.263-4.784-29.941-13.171l-68.194-74.438
				c-2.173-2.371-2.012-6.057,0.36-8.229c2.372-2.174,6.057-2.012,8.229,0.359l68.195,74.439c5.541,6.047,13.222,9.35,21.445,9.656
				c0.341,0.013,8.156,0.325,8.156,0.325h198.764c19.204,0,34.771-15.566,34.771-34.77
				C622.973,285.135,607.406,269.567,588.203,269.567z"/>
			<circle cx="397.272" cy="87.173" r="87.173"/>
		</g>
		<path d="M188.87,570.913c-13.485,0-25.188,7.604-31.071,18.756c-62.381-4.812-111.676-57.07-111.676-120.664
			c0-58.205,41.292-106.936,96.117-118.469v68.699c0,16.573,13.434,30.011,30.008,30.011c16.573,0,30.008-13.438,30.008-30.011
			V244.721c0-16.574-13.436-30.009-30.008-30.009c-16.574,0-30.008,13.436-30.008,30.009v73.339
			C69.707,330.009,14.198,393.141,14.198,469.005c0,81.079,63.402,147.617,143.231,152.666
			c5.752,11.541,17.667,19.476,31.439,19.476h253.611v-70.232L188.87,570.913L188.87,570.913z"/>
		<path d="M744.086,171.109c-7.33-2.51-15.307,1.398-17.814,8.727l-59.478,173.629H453.971c-7.745,0-14.026,6.278-14.026,14.026
			c0,7.747,6.281,14.026,14.026,14.026h222.676c4.771,0,8.979-2.388,11.514-6.028c0.874-1.155,1.588-2.46,2.083-3.906l62.572-182.66
			C755.319,181.595,751.417,173.618,744.086,171.109z"/>
	</g>
</g>
<g>
</g>
<g>
</g>
<g>
</g>
<g>
</g>
<g>
</g>
<g>
</g>
<g>
</g>
<g>
</g>
<g>
</g>
<g>
</g>
<g>
</g>
<g>
</g>
<g>
</g>
<g>
</g>
<g>
</g>
</svg>
